<svg width="12" height="11" viewBox="0 0 12 11" fill="none" xmlns="http://www.w3.org/2000/svg">
<path d="M10.6875 2.07812L7.40625 5.35938L10.6875 8.67188C11.0938 9.04688 11.0938 9.70312 10.6875 10.0781C10.3125 10.4844 9.65625 10.4844 9.28125 10.0781L6 6.79688L2.6875 10.0781C2.3125 10.4844 1.65625 10.4844 1.28125 10.0781C0.875 9.70312 0.875 9.04688 1.28125 8.67188L4.5625 5.35938L1.28125 2.07812C0.875 1.70312 0.875 1.04688 1.28125 0.671875C1.65625 0.265625 2.3125 0.265625 2.6875 0.671875L6 3.95312L9.28125 0.671875C9.65625 0.265625 10.3125 0.265625 10.6875 0.671875C11.0938 1.04688 11.0938 1.70312 10.6875 2.07812Z" fill="black"/>
</svg>
