<svg width="18" height="25" viewBox="0 0 18 25" fill="none" xmlns="http://www.w3.org/2000/svg">
<path d="M15.75 9.85938C15.75 6.15625 12.7031 3.10938 9 3.10938C5.25 3.10938 2.25 6.15625 2.25 9.85938C2.25 10.4688 2.4375 11.3594 2.95312 12.5781C3.42188 13.7031 4.125 15.0156 4.92188 16.3281C6.28125 18.4844 7.82812 20.5469 9 22.0469C10.125 20.5469 11.6719 18.4844 13.0312 16.3281C13.8281 15.0156 14.5312 13.7031 15 12.5781C15.5156 11.3594 15.75 10.4688 15.75 9.85938ZM18 9.85938C18 13.9844 12.5156 21.25 10.0781 24.2969C9.51562 25 8.4375 25 7.875 24.2969C5.48438 21.25 0 13.9844 0 9.85938C0 4.89062 4.03125 0.859375 9 0.859375C13.9688 0.859375 18 4.89062 18 9.85938ZM10.5 9.85938C10.5 9.0625 9.79688 8.35938 9 8.35938C8.15625 8.35938 7.5 9.0625 7.5 9.85938C7.5 10.7031 8.15625 11.3594 9 11.3594C9.79688 11.3594 10.5 10.7031 10.5 9.85938ZM5.25 9.85938C5.25 8.54688 5.95312 7.32812 7.125 6.625C8.25 5.96875 9.70312 5.96875 10.875 6.625C12 7.32812 12.75 8.54688 12.75 9.85938C12.75 11.2188 12 12.4375 10.875 13.1406C9.70312 13.7969 8.25 13.7969 7.125 13.1406C5.95312 12.4375 5.25 11.2188 5.25 9.85938Z" fill="#4D4D4F"/>
</svg>
