<svg width="25" height="25" viewBox="0 0 25 25" fill="none" xmlns="http://www.w3.org/2000/svg">
<path d="M17.25 10.6094C17.25 7.9375 15.7969 5.5 13.5 4.14062C11.1562 2.78125 8.29688 2.78125 6 4.14062C3.65625 5.5 2.25 7.9375 2.25 10.6094C2.25 13.3281 3.65625 15.7656 6 17.125C8.29688 18.4844 11.1562 18.4844 13.5 17.125C15.7969 15.7656 17.25 13.3281 17.25 10.6094ZM15.7969 18.2969C14.1094 19.6094 12 20.3594 9.75 20.3594C4.35938 20.3594 0 16 0 10.6094C0 5.26562 4.35938 0.859375 9.75 0.859375C15.0938 0.859375 19.5 5.26562 19.5 10.6094C19.5 12.9062 18.7031 15.0156 17.3906 16.7031L23.6719 22.9375C24.0938 23.4062 24.0938 24.1094 23.6719 24.5312C23.2031 25 22.5 25 22.0781 24.5312L15.7969 18.2969Z" fill="#4D4D4F"/>
</svg>
